<svg width="699" height="446" viewBox="0 0 699 446" fill="none" xmlns="http://www.w3.org/2000/svg">
<path d="M699 445.511C655.296 377.64 454.731 326.313 214.189 326.313C137.058 326.313 64.048 331.621 -0.999975 340.994V445.511H699Z" fill="#EBEDFE"/>
<path d="M160.039 11.1801C160.039 8.18746 161.225 5.3642 163.314 3.27499C165.403 1.18577 168.283 0 171.219 0C215.883 0 381.101 0 425.821 0C428.814 0 431.637 1.18577 433.726 3.27499C435.872 5.3642 437.058 8.24393 437.058 11.1801C437.058 44.3817 437.058 142.236 437.058 175.494C437.058 178.487 435.872 181.31 433.726 183.399C431.637 185.488 428.814 186.674 425.821 186.674C381.157 186.674 215.883 186.674 171.219 186.674C168.283 186.674 165.403 185.488 163.314 183.399C161.225 181.31 160.039 178.43 160.039 175.494C160.039 142.292 160.039 44.4382 160.039 11.1801Z" fill="#6D5AC7"/>
<path d="M317.464 151.948C317.464 149.577 319.384 147.6 321.755 147.6C335.081 147.6 375.736 147.6 389.175 147.6C391.546 147.6 393.466 149.52 393.466 151.948C393.466 154.32 391.49 156.239 389.175 156.239C375.793 156.239 335.138 156.239 321.755 156.239C319.384 156.239 317.464 154.32 317.464 151.948Z" fill="white"/>
<path d="M306.002 96.9509C306.002 95.5393 306.566 94.1276 307.583 93.1112C308.599 92.0949 310.011 91.4738 311.422 91.4738H388.046C389.514 91.4738 390.926 92.0949 391.942 93.1112C392.958 94.1276 393.523 95.5393 393.523 96.9509V132.693C393.523 134.105 392.958 135.517 391.942 136.533C390.926 137.549 389.514 138.114 388.046 138.114H311.422C310.011 138.114 308.599 137.549 307.583 136.533C306.566 135.517 306.002 134.105 306.002 132.693C306.002 123.715 306.002 105.985 306.002 96.9509Z" fill="#8E76FF"/>
<path d="M200.864 96.9509C200.864 95.5393 201.428 94.1276 202.445 93.1112C203.461 92.0949 204.873 91.4738 206.284 91.4738H282.908C284.376 91.4738 285.787 92.0949 286.804 93.1112C287.82 94.1276 288.385 95.5393 288.385 96.9509V132.693C288.385 134.105 287.82 135.517 286.804 136.533C285.787 137.549 284.376 138.114 282.908 138.114H206.284C204.873 138.114 203.461 137.549 202.445 136.533C201.428 135.517 200.864 134.105 200.864 132.693C200.864 123.715 200.864 105.985 200.864 96.9509Z" fill="#8E76FF"/>
<path d="M239.486 32.2417C239.486 29.8701 241.405 27.8939 243.777 27.8939C257.103 27.8939 297.758 27.8939 311.196 27.8939C313.568 27.8939 315.488 29.8137 315.488 32.2417C315.488 34.6132 313.512 36.533 311.196 36.533C297.814 36.533 257.159 36.533 243.777 36.533C241.405 36.5895 239.486 34.6697 239.486 32.2417Z" fill="#BAABFF"/>
<path d="M212.834 151.948C212.834 149.577 214.754 147.6 217.126 147.6C230.451 147.6 271.106 147.6 284.545 147.6C286.917 147.6 288.836 149.52 288.836 151.948C288.836 154.32 286.86 156.239 284.545 156.239C271.163 156.239 230.508 156.239 217.126 156.239C214.754 156.239 212.834 154.32 212.834 151.948Z" fill="white"/>
<path d="M349.311 167.307C349.311 164.935 351.23 162.959 353.602 162.959C362.072 162.959 380.762 162.959 389.175 162.959C391.547 162.959 393.523 164.879 393.523 167.307C393.523 169.678 391.603 171.598 389.175 171.598C380.705 171.598 362.072 171.598 353.602 171.598C351.23 171.654 349.311 169.678 349.311 167.307Z" fill="#D8DDFF"/>
<path d="M271.332 47.6002C271.332 45.2287 273.252 43.2524 275.623 43.2524C284.093 43.2524 302.783 43.2524 311.197 43.2524C313.568 43.2524 315.544 45.1722 315.544 47.6002C315.544 49.9718 313.625 51.8916 311.197 51.8916C302.727 51.8916 284.093 51.8916 275.623 51.8916C273.252 51.948 271.332 50.0282 271.332 47.6002Z" fill="#D8DDFF"/>
<path d="M244.624 167.307C244.624 164.935 246.544 162.959 248.916 162.959C257.385 162.959 276.075 162.959 284.489 162.959C286.86 162.959 288.836 164.879 288.836 167.307C288.836 169.678 286.917 171.598 284.489 171.598C276.019 171.598 257.385 171.598 248.916 171.598C246.544 171.654 244.624 169.678 244.624 167.307Z" fill="#D8DDFF"/>
<path d="M388.102 65.4433C387.594 65.5562 386.747 65.7821 385.9 65.7821H383.698C382.681 65.8385 382.681 66.2902 382.681 66.742C382.512 67.3631 383.02 67.9842 383.698 68.0407C385.561 68.0407 387.707 68.4924 388.892 67.4196C389.062 67.3066 389.231 67.1937 389.231 67.0808C389.231 66.9678 389.401 66.9114 389.401 66.7984C389.626 66.1209 389.118 65.3303 388.102 65.4433ZM372.292 65.8385C371.275 66.0644 370.936 67.9842 372.461 68.0971H376.978C378.164 68.0407 378.842 65.9515 376.978 65.8385H372.461C372.461 65.8385 372.461 65.8385 372.292 65.8385ZM361.055 65.8385C360.039 66.0644 359.7 67.9842 361.224 68.0971H365.742C366.927 68.0407 367.605 65.9515 365.742 65.8385H361.224C361.168 65.8385 361.168 65.8385 361.055 65.8385ZM349.762 65.6691C348.576 65.9515 348.407 67.6454 350.101 67.9277C350.609 68.0407 351.117 68.0407 351.625 68.0407H354.505C355.352 67.9842 355.352 67.7019 355.521 67.3631C355.86 66.6855 355.352 65.8385 354.505 65.7821C352.981 65.7821 351.456 65.895 350.327 65.6127C350.27 65.6691 350.27 65.6127 349.762 65.6691ZM343.72 57.3123C342.196 57.5946 342.534 60.2485 343.043 61.7166C343.212 62.2812 343.212 62.62 343.89 63.4105C344.398 64.314 346.431 63.5799 345.584 61.886C345.245 61.039 344.906 60.0791 344.906 59.1192V58.4416C344.906 57.4817 344.398 57.2558 343.72 57.3123ZM393.636 56.5782C392.789 56.7476 392.619 57.0864 392.619 57.7075V59.2321C392.619 60.0791 392.45 60.926 392.111 61.7166C392.111 61.7166 391.942 62.5071 392.28 62.9588C392.958 63.5799 393.974 63.2411 394.313 62.0554C394.821 60.926 394.821 59.2321 394.821 59.2321V57.5381C394.652 56.9735 394.483 56.5218 393.636 56.5782ZM343.72 46.0192C343.043 46.1321 342.704 46.358 342.704 47.1485V51.6657C342.704 52.8515 344.906 53.4162 344.906 51.6657V47.1485C344.906 46.4709 344.567 45.9627 343.72 46.0192ZM393.636 45.2852C392.789 45.4546 392.619 45.7933 392.619 46.4145V50.9317C392.789 52.9644 394.821 52.1175 394.821 50.9317V46.4145C394.821 45.7933 394.483 45.2287 393.636 45.2852ZM343.72 34.7262C343.043 34.8391 342.704 35.0649 342.704 35.8555V40.3727C342.704 41.502 344.906 42.1231 344.906 40.3727V35.8555C344.906 34.8955 344.398 34.6697 343.72 34.7262ZM393.636 33.9921C392.789 34.1615 392.619 34.5003 392.619 35.1214V39.6386C392.619 40.655 393.127 40.7115 393.636 40.7679C394.144 40.8244 394.821 40.3162 394.821 39.6386V35.1214C394.821 34.5003 394.483 33.9356 393.636 33.9921ZM345.075 20.8357C344.398 20.8922 344.059 21.4568 343.72 22.0215C343.043 23.2637 342.704 24.7318 342.704 26.1434C342.704 26.1999 342.704 26.2564 342.704 26.2564V29.249C342.873 30.3783 344.906 30.7171 344.906 29.0796C344.906 26.821 344.737 24.6189 346.092 22.5861C346.035 22.5861 346.543 20.7792 345.075 20.8357ZM393.127 22.7555C392.111 23.0378 392.45 23.7719 392.619 26.1434V28.3456C392.619 29.5313 394.821 30.0395 394.821 28.3456V26.087C394.821 25.3529 394.821 24.6189 394.483 23.9413C394.313 23.2637 393.974 22.6426 393.127 22.7555ZM384.432 17.2784C383.246 17.5042 382.907 19.4241 384.601 19.537C385.956 19.537 387.311 19.537 388.441 20.0452C388.441 20.0452 389.118 20.271 389.626 19.9322C390.304 19.3676 390.135 18.2383 388.779 17.7866C387.933 17.4478 386.916 17.2784 385.9 17.2784H384.545C384.432 17.2784 384.432 17.2784 384.432 17.2784ZM351.456 17.2784C348.407 17.3348 349.423 19.6499 350.778 19.5935C350.778 19.5935 351.287 19.537 351.625 19.537H355.126C355.804 19.4805 355.973 19.3111 356.143 18.9723C356.481 18.2948 355.973 17.3348 355.126 17.2784C353.94 17.2784 352.811 17.2784 351.456 17.2784ZM361.846 17.2784C360.66 17.5042 360.321 19.4241 361.846 19.537H366.363C367.549 19.4805 368.226 17.3913 366.363 17.2784H361.846ZM373.139 17.2784C371.953 17.5042 371.614 19.4241 373.308 19.537H377.656C378.842 19.4805 379.35 17.3913 377.656 17.2784H373.308C373.139 17.2784 373.139 17.2784 373.139 17.2784Z" fill="white"/>
<path d="M370.146 40.7115V34.6697C370.146 34.4438 370.146 34.3873 370.09 34.2744C369.92 33.8227 369.525 33.5968 369.017 33.5968C368.509 33.6533 368.114 33.9921 368.114 34.6132V40.655C366.081 40.655 363.992 40.655 361.959 40.7115C361.055 40.8244 361.112 41.0502 360.999 41.6149C360.942 42.1796 361.451 42.7442 362.072 42.7442H368.114V48.786C368.114 49.5765 368.339 49.52 368.678 49.6894C369.299 50.0282 370.146 49.52 370.146 48.786V42.8007H376.245C377.317 42.7442 377.713 40.7679 376.245 40.7115C374.212 40.7679 372.179 40.7115 370.146 40.7115Z" fill="white"/>
<path d="M36.0411 94.4664C36.0411 89.6669 39.9373 85.7708 44.7368 85.7708C63.2574 85.7708 106.34 85.7708 124.861 85.7708C129.661 85.7708 133.557 89.6669 133.557 94.4664C133.557 102.372 133.557 113.947 133.557 121.852C133.557 126.652 129.661 130.548 124.861 130.548C106.34 130.548 63.2574 130.548 44.7368 130.548C39.9373 130.548 36.0411 126.652 36.0411 121.852C36.0411 114.003 36.0411 102.372 36.0411 94.4664Z" fill="#D9DAEC"/>
<path d="M119.949 109.768C116.924 109.768 114.472 107.316 114.472 104.291C114.472 101.266 116.924 98.8142 119.949 98.8142C122.974 98.8142 125.426 101.266 125.426 104.291C125.426 107.316 122.974 109.768 119.949 109.768Z" fill="#A1A3D2"/>
<path d="M121.643 105.477C121.868 105.138 121.981 104.743 121.981 104.348C121.981 103.219 121.078 102.315 120.005 102.315C118.876 102.315 117.916 103.219 117.916 104.348C117.916 104.8 118.085 105.195 118.255 105.477C117.125 105.872 116.165 106.55 115.544 107.51C116.504 108.922 118.198 109.825 120.005 109.825C121.868 109.825 123.449 108.922 124.466 107.51C123.732 106.55 122.772 105.816 121.643 105.477Z" fill="white"/>
<path d="M45.8094 99.2095C45.8094 95.2005 49.0279 91.9819 53.037 91.9819C66.1934 91.9819 89.0054 91.9819 102.162 91.9819C106.171 91.9819 109.446 95.2569 109.446 99.2095C109.446 104.122 109.446 109.768 109.446 109.768H53.037C49.0279 109.768 45.8094 106.494 45.8094 102.541V99.2095Z" fill="white"/>
<path d="M45.8099 120.102C45.8099 117.843 47.6733 115.98 49.9319 115.98C63.5965 115.98 107.696 115.98 121.36 115.98C123.619 115.98 125.482 117.843 125.482 120.102C125.482 122.36 123.619 124.224 121.36 124.224C107.696 124.224 63.5965 124.224 49.9319 124.224C47.6733 124.224 45.8099 122.417 45.8099 120.102Z" fill="white"/>
<path d="M120.852 120.836C120.446 120.836 120.118 120.507 120.118 120.102C120.118 119.696 120.446 119.368 120.852 119.368C121.257 119.368 121.586 119.696 121.586 120.102C121.586 120.507 121.257 120.836 120.852 120.836Z" fill="#D9DAEC"/>
<path d="M118.424 120.836C118.019 120.836 117.69 120.507 117.69 120.102C117.69 119.696 118.019 119.368 118.424 119.368C118.83 119.368 119.158 119.696 119.158 120.102C119.158 120.507 118.83 120.836 118.424 120.836Z" fill="#D9DAEC"/>
<path d="M115.996 120.836C115.591 120.836 115.262 120.507 115.262 120.102C115.262 119.696 115.591 119.368 115.996 119.368C116.401 119.368 116.73 119.696 116.73 120.102C116.73 120.507 116.401 120.836 115.996 120.836Z" fill="#D9DAEC"/>
<path d="M515.77 12.3094C514.086 12.3094 512.721 10.9442 512.721 9.26025C512.721 7.57626 514.086 6.21112 515.77 6.21112C517.454 6.21112 518.819 7.57626 518.819 9.26025C518.819 10.9442 517.454 12.3094 515.77 12.3094Z" fill="#D9DAEC"/>
<path d="M515.77 26.6516C514.086 26.6516 512.721 25.2865 512.721 23.6025C512.721 21.9185 514.086 20.5533 515.77 20.5533C517.454 20.5533 518.819 21.9185 518.819 23.6025C518.819 25.2865 517.454 26.6516 515.77 26.6516Z" fill="#D9DAEC"/>
<path d="M515.77 40.9938C514.086 40.9938 512.721 39.6286 512.721 37.9447C512.721 36.2607 514.086 34.8955 515.77 34.8955C517.454 34.8955 518.819 36.2607 518.819 37.9447C518.819 39.6286 517.454 40.9938 515.77 40.9938Z" fill="#D9DAEC"/>
<path d="M528.419 12.3094C526.735 12.3094 525.37 10.9442 525.37 9.26025C525.37 7.57626 526.735 6.21112 528.419 6.21112C530.103 6.21112 531.468 7.57626 531.468 9.26025C531.468 10.9442 530.103 12.3094 528.419 12.3094Z" fill="#D9DAEC"/>
<path d="M528.419 26.6516C526.735 26.6516 525.37 25.2865 525.37 23.6025C525.37 21.9185 526.735 20.5533 528.419 20.5533C530.103 20.5533 531.468 21.9185 531.468 23.6025C531.468 25.2865 530.103 26.6516 528.419 26.6516Z" fill="#D9DAEC"/>
<path d="M528.419 40.9938C526.735 40.9938 525.37 39.6286 525.37 37.9447C525.37 36.2607 526.735 34.8955 528.419 34.8955C530.103 34.8955 531.468 36.2607 531.468 37.9447C531.468 39.6286 530.103 40.9938 528.419 40.9938Z" fill="#D9DAEC"/>
<path d="M541.067 12.3094C539.383 12.3094 538.017 10.9442 538.017 9.26025C538.017 7.57626 539.383 6.21112 541.067 6.21112C542.751 6.21112 544.116 7.57626 544.116 9.26025C544.116 10.9442 542.751 12.3094 541.067 12.3094Z" fill="#D9DAEC"/>
<path d="M541.067 26.6516C539.383 26.6516 538.017 25.2865 538.017 23.6025C538.017 21.9185 539.383 20.5533 541.067 20.5533C542.751 20.5533 544.116 21.9185 544.116 23.6025C544.116 25.2865 542.751 26.6516 541.067 26.6516Z" fill="#D9DAEC"/>
<path d="M541.067 40.9938C539.383 40.9938 538.017 39.6286 538.017 37.9447C538.017 36.2607 539.383 34.8955 541.067 34.8955C542.751 34.8955 544.116 36.2607 544.116 37.9447C544.116 39.6286 542.751 40.9938 541.067 40.9938Z" fill="#D9DAEC"/>
<path d="M553.715 12.3094C552.031 12.3094 550.666 10.9442 550.666 9.26025C550.666 7.57626 552.031 6.21112 553.715 6.21112C555.399 6.21112 556.764 7.57626 556.764 9.26025C556.764 10.9442 555.399 12.3094 553.715 12.3094Z" fill="#D9DAEC"/>
<path d="M553.715 26.6516C552.031 26.6516 550.666 25.2865 550.666 23.6025C550.666 21.9185 552.031 20.5533 553.715 20.5533C555.399 20.5533 556.764 21.9185 556.764 23.6025C556.764 25.2865 555.399 26.6516 553.715 26.6516Z" fill="#D9DAEC"/>
<path d="M553.715 40.9938C552.031 40.9938 550.666 39.6286 550.666 37.9447C550.666 36.2607 552.031 34.8955 553.715 34.8955C555.399 34.8955 556.764 36.2607 556.764 37.9447C556.764 39.6286 555.399 40.9938 553.715 40.9938Z" fill="#D9DAEC"/>
<path d="M566.363 12.3094C564.679 12.3094 563.314 10.9443 563.314 9.26031C563.314 7.57632 564.679 6.21118 566.363 6.21118C568.047 6.21118 569.412 7.57632 569.412 9.26031C569.412 10.9443 568.047 12.3094 566.363 12.3094Z" fill="#D9DAEC"/>
<path d="M566.363 26.6516C564.679 26.6516 563.314 25.2865 563.314 23.6025C563.314 21.9185 564.679 20.5533 566.363 20.5533C568.047 20.5533 569.412 21.9185 569.412 23.6025C569.412 25.2865 568.047 26.6516 566.363 26.6516Z" fill="#D9DAEC"/>
<path d="M566.363 40.9938C564.679 40.9938 563.314 39.6286 563.314 37.9447C563.314 36.2607 564.679 34.8955 566.363 34.8955C568.047 34.8955 569.412 36.2607 569.412 37.9447C569.412 39.6286 568.047 40.9938 566.363 40.9938Z" fill="#D9DAEC"/>
<path d="M94.144 180.35C94.144 176.736 97.0237 173.8 100.694 173.8C107.978 173.8 119.666 173.8 126.894 173.8C130.508 173.8 133.444 176.736 133.444 180.35C133.444 186.9 133.444 196.951 133.444 203.501C133.444 207.115 130.508 210.051 126.894 210.051C119.666 210.051 107.978 210.051 100.694 210.051C97.0802 210.051 94.144 207.115 94.144 203.501C94.144 196.951 94.144 186.9 94.144 180.35Z" fill="#C4CBFB"/>
<path d="M98.5481 199.548C98.0963 200 97.8141 200.621 97.8141 201.299C97.8141 201.581 97.8141 201.863 97.8141 202.202C97.8141 203.557 98.8869 204.63 100.242 204.63C102.952 204.63 107.018 204.63 107.018 204.63C107.018 204.63 120.682 204.63 126.385 204.63C127.007 204.63 127.628 204.348 128.079 203.896C128.531 203.444 128.813 202.823 128.813 202.202C128.813 201.581 128.813 200.96 128.813 200.452C128.813 199.774 128.531 199.153 128.079 198.701C127.12 197.741 125.369 195.991 123.788 194.354C122.941 193.507 121.755 192.998 120.57 192.998C119.384 192.998 118.198 193.507 117.351 194.354C116.391 195.257 115.149 195.822 113.85 195.822C112.551 195.822 111.253 195.313 110.293 194.354C108.486 192.547 105.606 192.547 103.856 194.354C101.88 196.217 99.6774 198.419 98.5481 199.548Z" fill="#6D5AC7"/>
<path d="M110.236 191.248C108.833 191.248 107.695 190.11 107.695 188.707C107.695 187.304 108.833 186.166 110.236 186.166C111.64 186.166 112.777 187.304 112.777 188.707C112.777 190.11 111.64 191.248 110.236 191.248Z" fill="#6D5AC7"/>
<path d="M94.0872 186.618C84.5758 186.618 76.8653 178.907 76.8653 169.396C76.8653 159.884 84.5758 152.174 94.0872 152.174C103.599 152.174 111.309 159.884 111.309 169.396C111.309 178.907 103.599 186.618 94.0872 186.618Z" fill="#FBA110"/>
<path d="M87.0859 162.62C85.5048 162.733 84.4884 164.766 85.6177 166.064L85.6742 166.121L94.8216 175.268C95.1039 175.551 95.2168 175.607 95.4427 175.663C96.1203 176.002 97.0237 175.889 97.5884 175.381C97.6449 175.325 97.7013 175.325 97.7578 175.268L102.557 170.469C103.461 169.509 103.178 167.758 101.993 167.137C101.202 166.742 100.242 166.968 99.6211 167.532L96.2332 170.92L88.6104 163.185C88.6104 163.185 87.7635 162.563 87.0859 162.62Z" fill="white"/>
<path d="M214.077 375.72C206.002 362.676 196.516 344.777 194.088 329.701C189.853 302.484 213.907 318.916 223.563 348.165C223.563 348.165 214.415 309.825 227.402 282.157C240.389 254.489 246.375 311.519 239.147 348.165C239.147 348.165 252.304 282.496 276.188 262.676C299.17 243.422 286.013 306.606 260.548 351.44C258.967 353.924 258.289 355.449 258.289 355.449C258.967 354.15 259.87 352.795 260.548 351.44C266.533 341.841 283.36 317.448 308.825 305.929C340.785 291.474 308.317 345.059 267.21 368.379C267.21 368.379 287.199 359.119 304.421 364.088C310.745 365.895 308.825 370.469 302.84 375.889C279.012 375.889 239.712 375.833 214.077 375.72Z" fill="#CCD2FD"/>
<path d="M376.301 375.776C370.372 366.234 363.427 353.077 361.62 342.067C358.515 322.078 376.188 334.161 383.246 355.618C383.246 355.618 376.527 327.499 386.07 307.228C395.612 286.957 399.96 328.797 394.709 355.618C394.709 355.618 404.364 307.453 421.869 292.885C438.752 278.769 429.096 325.127 410.406 357.99C409.22 359.797 408.712 360.926 408.712 360.926C409.22 359.966 409.841 359.006 410.406 357.99C414.81 350.932 427.12 333.032 445.81 324.619C469.243 314.003 445.415 353.303 415.319 370.412C415.319 370.412 430 363.58 442.591 367.25C447.221 368.605 445.81 371.937 441.406 375.889C423.901 375.889 395.104 375.833 376.301 375.776Z" fill="#C4CBFB"/>
<path d="M302.501 375.776C306.68 369.057 311.536 359.797 312.834 352.061C314.98 338.001 302.614 346.471 297.589 361.604C297.589 361.604 302.275 341.784 295.613 327.555C288.893 313.269 285.844 342.744 289.514 361.604C289.514 361.604 282.738 327.724 270.429 317.504C258.571 307.566 265.347 340.203 278.504 363.298C279.294 364.596 279.689 365.33 279.689 365.33C279.351 364.653 278.899 363.975 278.504 363.298C275.398 358.329 266.702 345.737 253.602 339.808C237.115 332.355 253.885 359.966 275.059 372.05C275.059 372.05 264.726 367.25 255.861 369.848C252.586 370.807 253.602 373.179 256.651 375.946C269.017 375.889 289.288 375.833 302.501 375.776Z" fill="#9DA8EA"/>
<path d="M88.3284 375.776C88.3284 375.776 87.3685 344.438 70.4289 329.588C53.5458 314.737 29.1527 328.515 26.5553 310.22C23.9579 291.925 36.3803 294.862 43.3256 298.475C50.2708 302.033 58.797 294.918 55.2397 283.23C51.6824 271.598 30.1691 262.676 37.6225 232.58C45.0759 202.484 75.2849 210.277 83.5288 228.967C91.7727 247.657 79.8021 288.707 103.348 307.171C126.894 325.635 128.814 356.522 117.013 375.325L88.3284 375.776Z" fill="#C4CBFB"/>
<path d="M58.2323 212.479C55.3526 223.32 56.2561 235.008 58.4582 246.471C60.4345 243.309 62.8061 240.373 65.347 237.606C69.9207 232.524 75.2284 228.176 81.1573 224.675C81.3832 224.958 81.5526 225.24 81.722 225.522C72.8569 230.661 65.1776 237.945 59.644 246.584C59.3617 247.036 58.9664 247.6 58.797 247.995C58.8535 248.504 59.0229 248.955 59.0793 249.464C64.5 275.776 76.2448 300.903 91.0387 323.151C91.2081 323.32 91.3775 323.49 91.3775 323.49C91.434 323.603 91.4339 323.715 91.4904 323.828C91.5469 323.941 91.6034 324.054 91.7163 324.167C99.3956 335.686 106.793 348.052 109.729 361.378C110.745 366.121 111.366 371.259 109.785 375.494H108.599C108.995 374.421 109.446 372.558 109.616 370.864C110.18 361.886 106.51 352.964 102.388 344.438C98.8309 337.211 94.4831 330.491 90.0788 323.659C84.3193 318.069 75.7931 315.923 67.7185 314.963C54.1104 313.326 40.8975 309.373 27.6282 305.759C27.12 305.647 26.6118 305.477 26.273 305.421C26.3295 305.082 26.3295 304.687 26.3295 304.348C26.8941 304.404 27.3459 304.574 27.8541 304.743C41.6881 308.526 55.4091 312.592 69.8077 314.116C76.3577 314.85 82.9642 316.827 88.2155 320.723C87.1991 319.085 86.1262 317.504 85.1099 315.81C80.3103 307.905 75.8496 299.718 71.897 291.304C71.8405 291.304 71.6711 291.248 71.5017 291.135C65.234 286.053 58.7406 281.254 51.9647 277.188C51.513 276.51 50.9484 275.889 50.4402 275.212C57.6113 279.39 64.5 284.303 71.05 289.441C65.1212 276.285 60.491 262.62 57.8371 248.504C57.7242 248.391 57.6678 248.221 57.7242 247.939C57.216 245.285 56.8207 242.688 56.4819 240.034C55.2962 230.887 54.9574 221.513 57.216 212.592C57.4983 212.535 57.8936 212.479 58.2323 212.479Z" fill="#FEFEFE"/>
<path d="M378.729 290.457C378.729 290.457 378.729 296.499 385.11 299.944C391.491 303.332 395.161 299.322 396.516 301.412C396.516 301.412 398.718 295.822 392.789 290.457C386.917 285.15 381.27 287.352 378.729 290.457Z" fill="#6F7DD1"/>
<path d="M372.8 319.706C372.8 319.706 375.906 340.881 348.464 335.46C348.464 335.46 349.424 334.387 351.57 328.967C353.715 323.433 363.032 315.81 372.8 319.706Z" fill="#6F7DD1"/>
<path d="M362.241 251.157C362.241 251.157 366.589 243.478 362.241 240.26C357.894 237.041 358.741 246.584 362.241 251.157Z" fill="#6F7DD1"/>
<path d="M357.047 257.03C357.047 257.03 349.989 250.141 348.464 255.054C346.94 259.91 357.047 257.03 357.047 257.03Z" fill="#6F7DD1"/>
<path d="M359.305 262.846C359.305 262.846 350.835 266.742 355.24 269.396C359.644 271.993 359.305 262.846 359.305 262.846Z" fill="#6F7DD1"/>
<path d="M367.832 255.618C367.832 255.618 375.68 254.602 374.946 251.214C374.156 247.77 367.944 252.117 367.832 255.618Z" fill="#6F7DD1"/>
<path d="M361.282 258.442C360.19 258.442 359.305 257.557 359.305 256.465C359.305 255.374 360.19 254.489 361.282 254.489C362.373 254.489 363.258 255.374 363.258 256.465C363.258 257.557 362.373 258.442 361.282 258.442Z" fill="#6F7DD1"/>
<path d="M372.8 293.45C373.817 287.352 375.398 281.31 374.438 274.76C374.438 274.76 373.591 270.356 372.349 267.871C370.542 264.37 367.549 261.547 364.048 259.627C363.766 259.458 363.483 259.345 363.088 259.345C362.015 259.627 361.902 260.813 363.427 261.66C369.074 264.935 372.518 271.146 372.687 278.6C372.8 285.093 370.711 291.417 370.09 297.911C370.033 299.04 369.977 300.678 369.977 300.678C369.977 307.228 373.139 313.156 377.148 318.464C376.471 318.295 375.793 318.238 375.172 318.238C369.808 318.351 365.516 322.755 362.524 326.595C362.467 326.708 362.072 327.329 362.298 327.837C362.58 328.458 363.596 328.628 364.048 328.007C364.161 327.837 364.161 327.837 364.33 327.668C364.782 327.047 365.347 326.369 365.855 325.805C366.307 325.296 366.758 324.845 367.21 324.337C367.605 323.998 367.944 323.659 368.34 323.32C368.622 323.094 368.904 322.868 369.186 322.643C372.292 320.271 377.205 318.859 380.423 322.53H380.48C380.931 323.094 381.383 323.602 381.891 324.167C392.224 335.855 404.195 346.076 411.423 360.305C413.625 364.653 415.883 369.509 414.923 374.421C414.472 376.736 415.883 376.398 416.391 376.002C416.73 375.776 416.9 375.099 416.9 375.099C417.013 374.534 417.013 374.421 417.069 374.139C417.521 369.848 415.996 365.443 414.302 361.604C406.454 343.93 389.683 331.508 378.447 316.77C374.551 311.688 371.671 305.646 372.123 298.871C372.123 298.362 372.179 297.854 372.236 297.346C374.099 294.297 377.374 292.095 381.044 291.925C385.787 291.7 390.135 294.241 393.749 296.951C393.749 296.951 394.144 297.233 394.539 297.12C395.443 296.951 395.725 295.822 394.596 294.975C390.756 292.208 386.408 289.893 381.722 289.836C381.609 289.836 381.609 289.836 381.496 289.836C378.277 289.949 375.172 291.248 372.8 293.45Z" fill="black"/>
<path d="M504.251 117.956C504.251 117.956 491.885 107.284 486.803 102.202C481.834 97.0638 477.882 90.5703 474.212 83.1733C470.541 75.8328 468.622 81.5358 468.226 85.5448C467.888 89.5539 470.485 93.7888 468.847 95.6521C467.21 97.5155 463.709 98.9836 462.636 101.186C461.563 103.388 468.622 106.663 470.993 108.187C470.993 108.187 469.92 111.971 470.316 114.286C470.767 116.601 481.27 129.136 483.585 131.903C485.956 134.67 505.324 125.409 505.437 122.868C505.663 120.384 504.251 117.956 504.251 117.956Z" fill="#FBA110"/>
<path d="M484.771 99.9435C480.705 95.2004 477.43 89.4974 474.268 83.1733C470.598 75.8328 468.678 81.5358 468.283 85.5448C467.944 89.5539 470.541 93.7888 468.904 95.6521C467.266 97.5155 463.765 98.9836 462.693 101.186C461.62 103.331 468.509 106.55 470.937 108.131L471.049 108.187C471.049 108.187 473.365 102.033 476.922 100.395C479.35 99.3788 482.794 99.6612 484.771 99.9435Z" fill="#F6926A"/>
<path d="M420.513 32.0157C420.513 30.3783 421.134 28.7972 422.32 27.6115C423.506 26.4257 425.087 25.8046 426.724 25.8046C438.864 25.8046 465.685 25.8046 477.825 25.8046C479.463 25.8046 481.044 26.4821 482.229 27.6115C483.415 28.7972 484.093 30.3218 484.093 32.0157C484.093 44.1558 484.093 70.9768 484.093 83.1168C484.093 84.7543 483.472 86.3353 482.229 87.5211C481.1 88.7069 479.519 89.328 477.825 89.328C465.685 89.328 438.864 89.328 426.724 89.328C425.087 89.328 423.506 88.6504 422.32 87.5211C421.19 86.3353 420.513 84.8108 420.513 83.1168C420.513 70.9768 420.513 44.1558 420.513 32.0157Z" fill="#BAABFF"/>
<path d="M452.246 57.651C447.756 57.651 444.115 54.0106 444.115 49.52C444.115 45.0293 447.756 41.389 452.246 41.389C456.737 41.389 460.377 45.0293 460.377 49.52C460.377 54.0106 456.737 57.651 452.246 57.651Z" fill="white"/>
<path d="M467.04 77.0186C468.621 77.0186 470.146 76.1152 470.823 74.7035C471.557 73.2919 471.444 71.5979 470.541 70.2992C466.532 64.5398 459.869 60.7566 452.303 60.7566C444.736 60.7566 438.073 64.5398 434.064 70.3557C433.161 71.6544 433.048 73.3483 433.782 74.76C434.516 76.1716 435.984 77.0186 437.565 77.0186C445.527 77.0186 459.022 77.0186 467.04 77.0186Z" fill="white"/>
<path d="M441.462 103.557C441.462 103.557 439.655 101.637 440.671 98.5883C441.631 95.5392 443.494 91.2479 440.953 89.4974C438.412 87.747 434.968 91.4737 432.935 86.5048C430.846 81.5358 427.684 76.6234 422.489 77.4703C417.351 78.3173 415.431 86.2789 419.44 93.0547C423.449 99.8306 423.619 104.291 424.466 105.816C425.313 107.34 441.462 103.557 441.462 103.557Z" fill="#F6926A"/>
<path d="M471.106 108.3C471.05 108.47 470.824 109.26 470.654 110.333C472.8 112.309 481.496 118.238 489.853 119.368C496.12 120.214 500.525 117.899 502.614 116.544C499 113.439 490.756 106.211 486.86 102.259C486.182 101.524 485.448 100.734 484.771 99.9435C482.794 99.6611 479.35 99.3788 476.979 100.508C473.421 102.089 471.106 108.244 471.106 108.3ZM470.993 108.131H471.05H470.993ZM470.88 108.074H470.937H470.88ZM470.598 107.905L470.654 107.962L470.598 107.905ZM470.372 107.792C470.429 107.849 470.485 107.849 470.541 107.905L470.485 107.849L470.372 107.792ZM484.658 99.8305H484.714L484.601 99.7176L484.658 99.8305ZM484.488 99.6047L484.545 99.6611L484.488 99.6047ZM484.375 99.4917H484.432L484.375 99.3788V99.4917ZM484.206 99.2659L484.319 99.3788L484.206 99.2659ZM484.15 99.1529L484.093 99.0965L484.15 99.1529ZM483.924 98.9271C483.98 98.9835 483.98 99.04 484.037 99.04L483.924 98.9271ZM483.867 98.8142L483.811 98.7577L483.867 98.8142ZM483.641 98.5883C483.698 98.6448 483.754 98.7012 483.754 98.7012L483.641 98.5883ZM483.585 98.4754L483.641 98.5318L483.528 98.4189L483.585 98.4754ZM483.416 98.2495C483.416 98.306 483.472 98.3624 483.528 98.3624L483.416 98.2495ZM483.246 98.1366L483.303 98.2495L483.246 98.1366ZM483.19 97.9672L483.077 97.8542L483.19 97.9672ZM482.964 97.7413C483.02 97.7978 483.02 97.8542 483.077 97.9107L482.964 97.7413ZM482.907 97.6284L482.851 97.5719L482.907 97.6284ZM482.682 97.4025C482.738 97.459 482.794 97.5155 482.794 97.5719L482.682 97.4025ZM482.625 97.2896L482.682 97.346L482.569 97.2331L482.625 97.2896ZM482.456 97.0073C482.512 97.0637 482.512 97.1202 482.569 97.1767L482.456 97.0073Z" fill="#FBC610"/>
<path d="M527.571 123.772C527.571 123.772 524.578 115.246 528.87 110.051C533.218 104.856 542.252 95.765 532.653 85.206C523.054 74.647 511.93 74.7599 505.211 84.5849C498.548 94.4098 495.95 105.646 498.604 108.583C501.315 111.519 505.211 114.173 501.541 122.36C499.169 127.668 527.571 123.772 527.571 123.772Z" fill="#F58B60"/>
<path d="M527.515 112.253C521.812 107.905 511.309 100.113 510.688 99.5482C509.898 98.7577 509.559 98.9836 508.43 101.242C507.357 103.501 504.646 108.3 501.315 106.606C499.282 105.59 498.209 104.574 497.588 103.953V104.065V104.122V104.235V104.348V104.461V104.517V104.574V104.63V104.743V104.856V104.912V104.969V105.025V105.082V105.138V105.195L497.645 105.251V105.308V105.364V105.421V105.477V105.534V105.59L497.701 105.646V105.703V105.759V105.816V105.872L497.758 105.929V105.985V106.042V106.098L497.814 106.155V106.211V106.268V106.324H497.871V106.381V106.437L497.927 106.493V106.55V106.606L497.983 106.663V106.719V106.776L498.04 106.832V106.889L498.096 106.945V107.002L498.153 107.058V107.115L498.209 107.171V107.228L498.266 107.284V107.34L498.322 107.397V107.453L498.379 107.51V107.566L498.435 107.623L498.548 108.413V108.47H498.605H498.661V108.526C499.226 109.147 499.79 109.712 500.355 110.333C502.049 111.011 504.308 111.632 507.413 113.552C512.156 116.431 511.93 120.497 511.93 120.497L520.965 123.998C524.748 123.885 527.571 123.715 527.571 123.715V123.659C527.571 123.659 527.571 123.602 527.515 123.602V123.546V123.49L527.458 123.433V123.377L527.402 123.32V123.264V123.094V123.038H527.345V122.981V122.925C527.345 122.868 527.289 122.868 527.289 122.812V122.699L527.232 122.643V122.53V122.473V122.417L527.176 122.36V122.304V122.247V122.191V122.134V122.078L527.12 122.021C527.12 121.965 527.12 121.908 527.12 121.908C527.063 121.852 527.063 121.796 527.063 121.739V121.626L527.007 121.57C527.007 121.513 527.007 121.457 527.007 121.4C527.007 121.344 526.95 121.287 526.95 121.231V121.174C526.95 121.118 526.95 121.118 526.95 121.062L526.894 121.005V120.949V120.892V120.836H526.837V120.779V120.723V120.666V120.61V120.553L526.781 120.44V120.271V120.215V120.158V120.102V120.045V119.989L526.724 119.932V119.876V119.819V119.763V119.706C526.724 119.65 526.724 119.65 526.724 119.593V119.537L526.668 119.48V119.424V119.368V119.311V119.255V119.198V119.142V119.142V119.085V119.029V118.972C526.668 118.916 526.611 118.916 526.611 118.859V118.803V118.746V118.69V118.577V118.521V118.464V118.408V118.351V118.295V118.238V118.182V118.125V118.069V118.012V117.899V117.843L526.555 117.787V117.73V117.674V117.617V117.561V117.504V117.448V117.391V117.335V117.278V117.222C526.555 117.165 526.555 117.165 526.555 117.109V117.052L526.611 116.996V116.883V116.827V116.77V116.714V116.657V116.601V116.544V116.488V116.431V116.375V116.262V116.205V116.149V116.093V116.036L526.668 115.98V115.923V115.867V115.81V115.754V115.754V115.697V115.641V115.584V115.528V115.471C526.724 115.415 526.724 115.302 526.724 115.246C526.724 115.189 526.724 115.189 526.724 115.133C526.724 115.076 526.781 115.076 526.781 115.02C526.781 114.963 526.781 114.85 526.781 114.794C526.837 114.737 526.837 114.737 526.837 114.681C526.837 114.568 526.894 114.455 526.894 114.342C526.894 114.286 526.894 114.286 526.95 114.229C526.95 114.116 527.007 114.003 527.007 113.89C527.007 113.834 527.063 113.834 527.063 113.777C527.063 113.721 527.12 113.608 527.12 113.552C527.12 113.495 527.176 113.495 527.176 113.439V113.382C527.233 113.269 527.232 113.156 527.289 113.1V113.043L527.345 112.987C527.345 112.874 527.402 112.761 527.458 112.648H527.515V112.253V112.253Z" fill="#ED6C36"/>
<path d="M532.653 85.1496C532.597 85.0367 532.597 84.9802 532.597 84.8673C531.298 76.6233 521.981 66.6855 517.069 69.8475C512.1 72.9531 512.664 78.2608 512.664 78.2608C512.664 78.3738 512.664 78.4302 512.664 78.4867C512.89 80.1807 515.488 84.9802 515.488 84.9802C514.189 86.7306 510.914 91.9254 513.455 92.2078C516.052 92.4901 520.626 94.297 517.803 98.0802C515.036 101.807 510.575 99.4353 510.575 99.4353C508.994 106.437 509.389 111.575 515.205 112.027C521.021 112.479 526.781 114.568 526.781 114.568C527.12 112.987 527.741 111.406 528.87 110.107C533.274 104.8 542.252 95.7651 532.653 85.1496Z" fill="#0C0739"/>
<path d="M515.092 380.068C515.092 380.068 511.309 381.197 513.794 387.239C516.278 393.281 518.65 401.073 519.271 402.541C519.779 404.065 497.532 405.421 495.555 408.47C492.619 413.043 529.152 413.777 539.542 413.665C547.616 413.552 559.192 414.512 555.804 409.26C552.472 404.009 545.753 388.65 544.116 384.472C542.478 380.294 515.092 380.068 515.092 380.068Z" fill="#FBA110"/>
<path d="M421.416 386.9C419.722 392.49 418.311 396.838 417.464 399.548C414.245 409.204 396.854 408.978 390.869 413.89L444.567 414.116L453.319 388.142L421.416 386.9Z" fill="#FBA110"/>
<path d="M522.772 195.652C522.772 195.652 532.314 193.168 530.903 209.543C529.548 225.974 526.273 251.779 520.852 273.123C515.375 294.41 510.236 306.663 518.876 322.925C527.515 339.187 553.997 375.268 557.441 384.698C554.731 389.836 520.4 386.9 513.907 387.182C513.907 387.182 498.096 357.538 491.151 349.351C484.206 341.163 473.873 324.901 474.268 305.647C474.663 286.392 491.942 209.712 491.942 209.712C491.942 209.712 510.18 180.689 522.772 195.652Z" fill="url(#paint0_linear_9_217)"/>
<path d="M421.416 386.9L423.788 387.013L453.319 388.142L460.829 388.538C460.829 388.538 473.082 340.316 477.882 324.506C482.625 308.639 487.424 284.359 489.965 271.033C492.619 257.707 506.792 242.349 512.834 227.894C518.988 213.439 520.287 202.541 520.287 202.541L483.246 202.146L476.583 202.089C476.583 202.089 473.76 200.226 470.767 206.211C467.774 212.196 458.458 242.01 448.294 286.9C440.219 322.699 428.192 364.54 421.416 386.9Z" fill="#232E4A"/>
<path d="M421.417 386.9L423.788 387.013C433.387 379.785 441.18 363.467 443.156 349.294C445.584 332.467 451.626 313.665 457.893 297.177C464.217 280.689 472.066 256.013 474.607 236.589C476.414 222.53 480.931 208.639 483.303 202.089L476.64 202.033C476.64 202.033 473.817 200.169 470.824 206.155C467.831 212.14 458.514 241.954 448.351 286.844C440.22 322.699 428.193 364.54 421.417 386.9Z" fill="#3B4766"/>
<path d="M534.177 172.953C534.177 172.953 543.607 179.221 548.802 173.574C553.997 167.928 551.851 154.263 547.955 143.648C544.002 133.032 536.662 123.094 524.352 120.949C512.099 118.803 496.91 119.142 478.672 133.653C460.434 148.165 461.224 150.649 457.949 142.349C454.674 134.049 445.245 107.34 443.889 104.348C442.478 101.355 435.984 99.8306 429.604 100.79C423.28 101.75 421.247 102.541 422.094 107.284C422.884 112.027 431.524 158.046 439.429 169.283C447.334 180.519 458.796 183.456 467.21 177.527C475.566 171.598 486.351 162.959 486.351 162.959C486.351 162.959 480.535 174.478 477.882 181.479C475.171 188.481 472.517 192.998 473.025 196.781C473.477 200.565 472.122 203.388 470.823 206.155L531.128 208.921C531.128 208.921 532.088 200.169 533.782 195.37C535.42 190.457 534.29 175.607 534.177 172.953Z" fill="#FBA110"/>
<path d="M480.875 206.493C480.875 206.493 490.417 185.94 493.692 176.285C497.024 166.572 497.758 164.54 502.84 158.159C507.865 151.779 511.818 140.486 502.388 149.012C493.353 157.199 487.82 161.208 485.109 163.862C485.956 163.185 486.408 162.846 486.408 162.846C486.408 162.846 480.592 174.365 477.938 181.366C475.228 188.368 472.574 192.885 473.082 196.668C473.534 200.452 472.179 203.275 470.88 206.042L480.875 206.493Z" fill="#FBC610"/>
<path d="M511.931 119.989C502.275 120.384 491.208 123.659 478.729 133.653C462.636 146.414 461.394 149.859 459.079 144.833C458.853 145.567 458.853 146.132 459.023 146.584C461.451 152.626 463.314 155.223 470.993 149.125C478.616 143.026 496.685 132.58 506.849 127.555C513.173 124.449 513.003 121.626 511.931 119.989Z" fill="#FBC610"/>
<path d="M438.3 100.96C435.759 100.395 432.653 100.282 429.66 100.734C423.336 101.694 421.304 102.484 422.151 107.227C422.941 111.971 431.58 157.99 439.485 169.226C443.099 174.365 447.504 177.809 452.021 179.39C454.562 173.461 447.334 165.951 442.083 154.997C435.928 142.067 437.283 130.322 438.921 118.464C439.824 111.462 439.09 105.082 438.3 100.96Z" fill="#FBC610"/>
<path d="M550.157 171.598C549.988 171.485 549.818 171.485 549.649 171.485C547.334 171.767 541.8 166.572 540.163 158.441C538.638 150.31 534.573 141.445 534.686 146.132C534.742 150.819 534.234 168.831 534.178 172.332C534.178 172.558 534.178 172.784 534.178 173.01C534.799 173.461 543.72 178.995 548.746 173.631C549.31 173.01 549.762 172.332 550.157 171.598Z" fill="#FB7210"/>
<path d="M112.834 377.64C112.834 377.64 108.599 383.23 110.632 390.062C112.665 396.951 120.739 398.588 130.959 397.29C141.18 395.991 161.902 391.079 161.902 391.079C161.902 391.079 124.409 372.219 112.834 377.64Z" fill="#000439"/>
<path d="M173.478 359.345C173.647 359.402 176.188 360.757 176.47 360.926L177.6 375.551L229.774 384.642C229.774 384.642 237.622 382.835 252.247 376.341C266.815 369.904 275.623 360.87 270.146 345.455C268.848 341.897 266.758 339.469 264.048 337.888C254.957 332.637 239.26 336.872 226.273 340.994C224.918 341.446 223.449 341.897 221.868 342.406L221.699 342.462C221.699 342.462 213.342 343.648 204.082 347.883C198.831 350.311 189.457 353.699 182.512 356.183C177.374 358.046 173.478 359.345 173.478 359.345Z" fill="#1F2460"/>
<path d="M201.372 366.403C209.842 364.088 252.304 352.343 261.056 345.737C264.952 342.801 265.065 340.034 263.992 337.945C254.901 332.693 239.204 336.928 226.217 341.05C224.861 341.502 223.393 341.954 221.812 342.462L221.643 342.518C221.643 342.518 213.286 343.704 204.026 347.939C198.774 350.367 189.401 353.755 182.456 356.24C178.673 365.782 193.693 368.549 201.372 366.403Z" fill="#3A4087"/>
<path d="M81.3265 371.655C89.514 380.124 98.0402 380.181 109.051 381.931C120.062 383.738 150.892 392.095 166.759 393.055C182.569 394.015 199.395 395.483 199.395 395.483C199.395 395.483 204.421 379.616 200.807 370.92C200.807 370.92 167.267 357.256 158.571 352.852C149.875 348.447 121.869 340.655 121.869 340.655C121.869 340.655 118.311 339.3 113.229 338.227C105.55 336.646 94.37 335.686 86.1825 340.994C83.5286 342.744 81.383 344.664 79.7455 346.64C73.0826 354.941 74.7201 364.822 81.3265 371.655Z" fill="#1F2460"/>
<path d="M83.6414 356.014C97.1366 364.201 119.271 358.611 116.222 350.254C114.133 344.608 113.455 340.429 113.229 338.284C105.55 336.702 94.3698 335.743 86.1824 341.05C83.5285 342.801 81.3829 344.721 79.7454 346.697C78.1644 349.746 78.729 353.021 83.6414 356.014Z" fill="#3D4290"/>
<path d="M118.481 348.052C126.668 358.611 148.633 371.259 162.524 379.108C163.427 375.664 164.726 372.84 166.194 370.469C168.227 367.194 170.542 364.879 172.687 363.241C173.986 363.58 175.059 363.806 176.019 363.862C176.245 363.862 176.471 363.862 176.64 363.862L176.471 361.378V361.039V360.926C176.301 360.813 175.398 360.361 174.607 359.91H174.551C173.986 359.627 173.534 359.402 173.478 359.345C173.478 359.345 173.534 359.345 173.591 359.289C174.777 358.893 187.255 354.658 196.911 350.932C199.678 349.859 202.162 348.843 204.138 347.939C208.148 346.076 211.818 344.89 214.81 344.099C213.738 343.083 213.004 340.147 212.947 339.921C213.116 339.977 213.286 340.034 213.455 340.09C213.512 340.09 213.512 340.09 213.568 340.147C214.246 340.373 214.923 340.599 215.601 340.768C215.714 340.824 215.827 340.824 215.94 340.881C216.053 340.937 216.222 340.937 216.335 340.994C216.448 341.05 216.561 341.05 216.674 341.107C220.457 342.01 223.506 342.123 223.506 342.123C225.765 341.389 229.378 340.147 230.451 339.865C234.009 337.38 235.533 333.089 235.533 328.628C235.477 323.885 234.065 313.947 231.694 303.557C228.983 291.643 224.974 279.164 220.344 273.461C215.206 267.194 202.727 261.434 193.41 257.821C186.973 255.28 182.004 253.811 182.004 253.811L183.867 256.183C181.552 255.618 180.197 255.788 180.197 255.788L159.757 259.345L159.418 259.514L157.159 254.658C157.159 254.658 152.529 254.771 145.471 257.764C142.027 259.232 137.961 261.434 133.613 264.653C121.022 273.913 118.594 279.221 116.279 294.128C116.166 294.918 116.053 295.709 115.94 296.499C113.455 313.269 108.995 335.856 118.481 348.052Z" fill="#5845B2"/>
<path d="M213.568 340.147C214.245 340.373 214.923 340.599 215.601 340.768C214.923 340.542 214.245 340.373 213.568 340.147Z" fill="#6D5AC7"/>
<path d="M123.224 324.28C124.071 333.992 131.467 339.13 139.486 348.73C146.882 357.538 158.797 366.911 166.194 370.469C166.871 370.808 167.492 371.09 168.057 371.259C172.969 373.123 175.115 367.476 175.962 363.862C176.244 362.733 176.357 361.83 176.414 361.378C176.47 361.208 176.47 361.096 176.47 361.096C176.47 361.096 176.47 361.096 176.414 361.039C176.244 360.926 175.567 360.531 174.55 359.91H174.494C174.212 359.74 173.873 359.571 173.534 359.345C170.767 357.651 166.137 354.771 160.208 350.875C150.27 344.269 142.026 335.46 139.316 329.023C136.549 322.586 138.977 310.39 140.333 303.727C141.688 297.064 144.342 285.376 144.342 285.376C144.342 285.376 144.85 285.376 146.826 307.228C148.802 329.08 154.054 331.112 161.563 335.573C169.186 339.977 162.919 340.824 166.589 342.801C169.751 344.495 182.512 348.617 196.854 350.988C199.621 349.915 202.106 348.899 204.082 347.996C208.091 346.132 211.761 344.946 214.754 344.156C213.681 343.14 212.947 340.203 212.89 339.977C200.637 335.968 186.86 327.499 184.827 326.143C182.004 324.28 169.073 315.472 166.815 313.891C164.556 312.31 165.064 311.406 165.064 311.406C165.064 311.406 165.855 293.111 173.139 302.089C180.423 311.124 211.422 329.362 219.553 328.684C227.741 328.007 226.103 321.118 221.981 318.013C217.803 314.907 205.832 308.357 205.832 308.357L203.912 295.991C209.051 303.953 220.457 315.867 226.95 311.632C229.886 309.769 231.129 306.494 231.693 303.501C228.983 291.587 224.974 279.108 220.344 273.405C215.205 267.137 202.727 261.378 193.41 257.764C187.707 260.531 174.889 270.073 164.556 267.645C157.442 265.952 152.416 260.926 145.471 257.708C142.026 259.176 137.961 261.378 133.613 264.596C121.021 273.857 118.593 279.164 116.278 294.071C126.442 297.741 122.32 314.907 123.224 324.28Z" fill="#6D5AC7"/>
<path d="M176.414 360.926C172.461 362.902 165.516 367.928 162.467 379.108L168.396 382.439C180.875 389.498 188.441 391.7 192.337 384.642C195.781 378.6 186.747 368.154 176.414 360.926Z" fill="#FE9963"/>
<path d="M174.607 292.208C174.607 292.208 176.019 279.898 175.454 277.301C172.405 276.623 154.054 273.518 152.021 273.405C151.908 277.527 151.513 292.377 151.513 292.377L174.607 292.208Z" fill="#1D2159"/>
<path d="M182.286 295.201C178.616 293.224 175.793 291.643 175.059 291.135C172.574 289.441 166.984 280.181 164.443 282.326C161.902 284.472 163.37 291.022 163.37 291.022C146.205 283.795 145.414 292.434 152.585 301.412C155.183 304.743 160.434 309.147 166.928 313.834C174.607 309.091 180.197 299.323 182.286 295.201Z" fill="#FE9963"/>
<path d="M189.796 230.887C189.796 230.887 196.515 232.863 196.741 238.961C196.854 245.116 188.384 245.963 188.384 245.963C188.384 245.963 188.667 261.321 177.317 266.403C165.967 271.485 153.319 265.613 152.755 247.883C152.755 247.883 146.656 246.81 145.753 242.123C144.849 237.437 146.374 235.968 149.48 234.613C149.48 234.613 153.206 221.287 155.634 219.311C157.949 217.335 170.315 219.481 170.315 219.481L189.796 230.887Z" fill="#FE9963"/>
<path d="M159.418 223.49C159.418 223.49 159.87 226.652 156.877 231.282C153.884 235.856 152.473 237.267 152.473 237.267C152.473 237.267 151.851 235.912 150.722 235.178C149.593 234.444 147.842 234.839 146.544 236.646C146.544 236.646 145.64 230.209 144.906 224.28C144.285 218.295 148.464 212.422 156.086 216.714C156.086 216.714 161.451 208.075 172.179 205.364C182.964 202.654 190.756 209.035 194.483 217.561C198.209 226.087 194.765 235.291 192.789 238.622C190.756 242.01 188.272 243.648 188.272 243.648C188.272 243.648 186.521 236.759 186.013 235.178C186.013 235.121 170.372 240.26 159.418 223.49Z" fill="#000439"/>
<path d="M200.581 371.203C200.863 373.405 201.315 377.696 201.089 381.254C200.863 385.263 199.678 392.603 199.169 395.37C199.282 395.37 199.395 395.426 199.452 395.426C204.308 396.386 230.338 401.129 243.269 402.71C256.143 404.291 259.644 404.235 247.956 393.281C236.324 382.326 223.28 375.381 218.142 374.986C213.06 374.591 215.319 377.583 200.751 371.372C200.638 371.259 200.581 371.203 200.581 371.203Z" fill="#000439"/>
<defs>
<linearGradient id="paint0_linear_9_217" x1="523.665" y1="384.377" x2="494.534" y2="209.038" gradientUnits="userSpaceOnUse">
<stop stop-color="#232E4A"/>
<stop offset="1"/>
</linearGradient>
</defs>
</svg>
